<svg width="28" height="28" viewBox="0 0 28 28" fill="none" xmlns="http://www.w3.org/2000/svg">
<circle cx="14.2693" cy="13.9615" r="13.7308" fill="#3F7C88"/>
<path d="M14.4944 16.55C15.7997 16.55 16.8578 15.4918 16.8578 14.1865C16.8578 12.8812 15.7997 11.823 14.4944 11.823C13.189 11.823 12.1309 12.8812 12.1309 14.1865C12.1309 15.4918 13.189 16.55 14.4944 16.55Z" fill="white"/>
<path d="M20.7967 7.88389H18.2993L17.3223 6.82032C17.0308 6.49731 16.6054 6.30823 16.1642 6.30823H12.8238C12.3826 6.30823 11.9572 6.49731 11.6578 6.82032L10.6888 7.88389H8.19138C7.32477 7.88389 6.61572 8.59294 6.61572 9.45955V18.9135C6.61572 19.7801 7.32477 20.4892 8.19138 20.4892H20.7967C21.6633 20.4892 22.3723 19.7801 22.3723 18.9135V9.45955C22.3723 8.59294 21.6633 7.88389 20.7967 7.88389ZM14.494 18.1257C12.3196 18.1257 10.5549 16.361 10.5549 14.1865C10.5549 12.0121 12.3196 10.2474 14.494 10.2474C16.6684 10.2474 18.4332 12.0121 18.4332 14.1865C18.4332 16.361 16.6684 18.1257 14.494 18.1257Z" fill="white"/>
</svg>
