<svg width="41" height="41" viewBox="0 0 41 41" fill="none" xmlns="http://www.w3.org/2000/svg">
<path d="M11.75 20.5H9.25L20.5 9.25L31.75 20.5H29.25" stroke="white" stroke-width="2.25" stroke-linecap="round" stroke-linejoin="round"/>
<path d="M11.749 20.5V29.25C11.749 29.913 12.0124 30.5489 12.4813 31.0178C12.9501 31.4866 13.586 31.75 14.249 31.75H26.749C27.4121 31.75 28.0479 31.4866 28.5168 31.0178C28.9856 30.5489 29.249 29.913 29.249 29.25V20.5" stroke="white" stroke-width="2.25" stroke-linecap="round" stroke-linejoin="round"/>
<path d="M17.4453 31.3846V24.9135C17.4453 24.3414 17.6551 23.7928 18.0285 23.3883C18.4019 22.9837 18.9084 22.7565 19.4364 22.7565H21.4275C21.9556 22.7565 22.4621 22.9837 22.8355 23.3883C23.2089 23.7928 23.4187 24.3414 23.4187 24.9135V31.3846" stroke="white" stroke-width="2.25" stroke-linecap="round" stroke-linejoin="round"/>
</svg>
