<svg width="17" height="17" viewBox="0 0 17 17" fill="none" xmlns="http://www.w3.org/2000/svg">
<path d="M10.5118 11.5175C12.651 11.9212 14.1668 12.9554 14.1668 14.1666V15.5833H2.8335V14.1666C2.8335 12.9554 4.34933 11.9212 6.4885 11.5175L8.50016 14.875L10.5118 11.5175ZM5.66683 5.66664H11.3335V7.0833C11.3335 7.83475 11.035 8.55542 10.5036 9.08677C9.97228 9.61812 9.25161 9.91664 8.50016 9.91664C7.74872 9.91664 7.02805 9.61812 6.49669 9.08677C5.96534 8.55542 5.66683 7.83475 5.66683 7.0833V5.66664ZM5.66683 4.9583L5.95725 2.05413C5.97487 1.87881 6.0572 1.71634 6.18818 1.59846C6.31916 1.48058 6.48937 1.41575 6.66558 1.41663H10.3418C10.7031 1.41663 11.0077 1.69288 11.0431 2.05413L11.3335 4.9583H5.66683ZM8.50016 2.12497H7.79183V2.8333H7.0835V3.54164H7.79183V4.24997H8.50016V3.54164H9.2085V2.8333H8.50016V2.12497Z" fill="black"/>
</svg>
