<svg width="17" height="17" viewBox="0 0 17 17" fill="none" xmlns="http://www.w3.org/2000/svg">
<path d="M14.2109 6.37502C14.2116 5.40993 13.9678 4.4604 13.5021 3.6151C13.0364 2.7698 12.3641 2.0563 11.5479 1.54124C10.7317 1.02617 9.79836 0.726342 8.83493 0.669743C7.87149 0.613144 6.90943 0.801623 6.03858 1.21758C5.16773 1.63354 4.41649 2.2634 3.85502 3.04836C3.29355 3.83332 2.94016 4.74776 2.82786 5.7063C2.71556 6.66483 2.848 7.6362 3.21282 8.52968C3.57764 9.42316 4.16294 10.2096 4.91406 10.8156V15.9375C4.91414 16.0054 4.93156 16.0722 4.96469 16.1314C4.99781 16.1907 5.04553 16.2405 5.10332 16.2762C5.16605 16.3154 5.23855 16.3361 5.3125 16.336C5.37426 16.336 5.43519 16.3217 5.49047 16.2941L8.5 14.7894L11.5102 16.2941C11.5709 16.3243 11.6384 16.3385 11.7061 16.3353C11.7738 16.3321 11.8396 16.3117 11.8973 16.276C11.955 16.2403 12.0025 16.1905 12.0355 16.1313C12.0686 16.072 12.0859 16.0053 12.0859 15.9375V10.8156C12.7493 10.2812 13.2846 9.60488 13.6523 8.83644C14.0201 8.06799 14.2109 7.22692 14.2109 6.37502ZM3.58594 6.37502C3.58594 5.40311 3.87414 4.45303 4.41411 3.64491C4.95407 2.8368 5.72154 2.20695 6.61947 1.83502C7.5174 1.46308 8.50545 1.36577 9.45869 1.55538C10.4119 1.74499 11.2875 2.21301 11.9748 2.90025C12.662 3.5875 13.13 4.4631 13.3196 5.41633C13.5093 6.36957 13.4119 7.35762 13.04 8.25555C12.6681 9.15348 12.0382 9.92095 11.2301 10.4609C10.422 11.0009 9.47191 11.2891 8.5 11.2891C7.1972 11.2875 5.9482 10.7693 5.02698 9.84804C4.10576 8.92682 3.58752 7.67782 3.58594 6.37502ZM11.2891 15.2927L8.67731 13.9872C8.62204 13.9596 8.56111 13.9452 8.49934 13.9452C8.43756 13.9452 8.37664 13.9596 8.32137 13.9872L5.71094 15.2927V11.3555C6.56263 11.834 7.5231 12.0853 8.5 12.0853C9.4769 12.0853 10.4374 11.834 11.2891 11.3555V15.2927ZM8.5 9.96096C9.20923 9.96096 9.90254 9.75065 10.4922 9.35662C11.0819 8.96259 11.5416 8.40254 11.813 7.7473C12.0844 7.09205 12.1554 6.37104 12.017 5.67544C11.8787 4.97983 11.5371 4.34088 11.0356 3.83938C10.5341 3.33788 9.89519 2.99635 9.19958 2.85799C8.50398 2.71962 7.78297 2.79063 7.12772 3.06205C6.47248 3.33346 5.91243 3.79308 5.5184 4.38278C5.12437 4.97248 4.91406 5.66579 4.91406 6.37502C4.91512 7.32575 5.29326 8.23723 5.96552 8.9095C6.63779 9.58176 7.54927 9.9599 8.5 9.96096ZM8.5 3.58596C9.05163 3.58596 9.59086 3.74953 10.0495 4.056C10.5082 4.36247 10.8657 4.79806 11.0768 5.30769C11.2879 5.81733 11.3431 6.37811 11.2355 6.91914C11.1279 7.46016 10.8622 7.95713 10.4722 8.34718C10.0821 8.73724 9.58514 9.00287 9.04412 9.11049C8.50309 9.21811 7.94231 9.16287 7.43267 8.95178C6.92304 8.74068 6.48745 8.3832 6.18098 7.92454C5.87451 7.46588 5.71094 6.92664 5.71094 6.37502C5.71094 5.63531 6.00478 4.92591 6.52784 4.40285C7.05089 3.8798 7.7603 3.58596 8.5 3.58596Z" fill="black"/>
</svg>
