<svg width="46" height="42" viewBox="0 0 46 42" fill="none" xmlns="http://www.w3.org/2000/svg">
<path d="M37.7667 24.7165C37.6695 24.5745 37.5402 24.4581 37.3896 24.3771C37.239 24.2961 37.0715 24.2527 36.901 24.2507C35.94 24.2235 34.9784 24.2778 34.0262 24.4132C34.3076 23.7364 34.505 23.0269 34.614 22.3009C34.9338 20.156 34.5068 17.9653 33.4064 16.1048C33.2929 15.903 33.1184 15.7435 32.9087 15.6499C32.6989 15.5562 32.465 15.5334 32.2415 15.5848C31.2591 15.89 30.3129 16.3042 29.4202 16.8197C29.4093 16.3407 29.3664 15.863 29.2919 15.3898C29.0461 14.0643 28.5212 12.8081 27.753 11.7068C26.6404 10.171 25.1724 8.936 23.4782 8.11049C23.3318 8.03779 23.171 8 23.008 8C22.845 8 22.6841 8.03779 22.5378 8.11049C20.8435 8.936 19.3755 10.171 18.263 11.7068C17.2116 13.2019 16.6305 14.9841 16.5958 16.8197C15.7033 16.3036 14.7571 15.8894 13.7744 15.5848C13.5483 15.5202 13.3074 15.5329 13.0891 15.6211C12.8708 15.7092 12.6872 15.8678 12.5668 16.0723C12.1154 16.834 11.7769 17.6589 11.5622 18.5204C11.5151 18.6625 11.4976 18.813 11.5108 18.9623C11.524 19.1117 11.5676 19.2566 11.639 19.3879C11.7103 19.5193 11.8077 19.6342 11.9251 19.7254C12.0425 19.8166 12.1773 19.8821 12.321 19.9178C12.4572 19.9536 12.5989 19.9618 12.7382 19.942C12.8775 19.9221 13.0115 19.8746 13.1327 19.8022C13.2538 19.7297 13.3596 19.6337 13.4441 19.5197C13.5285 19.4057 13.59 19.276 13.6248 19.1378C13.7292 18.7685 13.8578 18.4066 14.0096 18.0546C15.9998 18.7921 17.7445 20.0836 19.0431 21.7809C20.573 23.8689 21.3671 26.417 21.2981 29.017C19.8043 27.5609 18.0531 26.4033 16.1363 25.6048C15.648 25.3988 15.1485 25.2216 14.6401 25.074C14.6234 25.018 14.6019 24.9637 14.576 24.9115C14.016 24.0538 13.6509 23.0807 13.5073 22.0626C13.4865 21.9206 13.438 21.7842 13.3648 21.6614C13.2915 21.5386 13.1949 21.4317 13.0805 21.3471C12.9662 21.2624 12.8364 21.2016 12.6987 21.1682C12.5609 21.1349 12.418 21.1296 12.2783 21.1527C11.9995 21.198 11.7497 21.3533 11.5835 21.5847C11.4173 21.816 11.3482 22.1047 11.3912 22.3876C11.5003 23.1136 11.6977 23.8231 11.979 24.4999C11.0328 24.3361 10.0748 24.2527 9.11493 24.2507C8.94424 24.2432 8.77427 24.2773 8.61926 24.3501C8.46426 24.423 8.32873 24.5324 8.22406 24.6693C8.11939 24.8061 8.04861 24.9664 8.01767 25.1368C7.98673 25.3071 7.99652 25.4824 8.04623 25.6481C8.53465 27.2485 9.34792 28.7277 10.4338 29.9907C11.5197 31.2536 12.8542 32.2724 14.3515 32.9816C15.8254 33.6576 17.4254 34.0049 19.0431 33.9998C20.3929 34.0069 21.7338 33.7797 23.008 33.3282C24.2686 33.7749 25.5947 34.002 26.9301 33.9998C28.5512 34.0037 30.1544 33.6566 31.6324 32.9816L32.0385 32.7866C32.2921 32.6573 32.4848 32.4312 32.5739 32.158C32.6631 31.8847 32.6416 31.5868 32.514 31.3297C32.3865 31.0725 32.1634 30.8773 31.8938 30.7869C31.6243 30.6965 31.3303 30.7183 31.0766 30.8476L30.7453 31.0101C28.9738 31.8048 27.0049 32.0316 25.1026 31.6601C26.6071 29.8364 28.5248 28.4092 30.6919 27.5004C32.167 26.8898 33.7295 26.524 35.3194 26.4172C34.9019 27.3275 34.3545 28.1706 33.6949 28.9195C33.4994 29.1278 33.3934 29.4063 33.4005 29.6937C33.4075 29.9812 33.5269 30.254 33.7323 30.4522C33.9378 30.6505 34.2126 30.7578 34.4962 30.7507C34.7798 30.7436 35.049 30.6226 35.2446 30.4143C36.4937 29.0525 37.425 27.4237 37.9697 25.6481C38.0083 25.4874 38.01 25.3199 37.9748 25.1584C37.9396 24.9969 37.8684 24.8458 37.7667 24.7165ZM20.7423 20.3836C20.1875 19.6497 19.5569 18.9779 18.8614 18.3796C18.6799 17.4447 18.6886 16.4821 18.8871 15.5508C19.0856 14.6194 19.4696 13.739 20.0156 12.9634C20.8054 11.8637 21.8278 10.9569 23.008 10.3095C24.1882 10.9569 25.2106 11.8637 26.0003 12.9634C26.5485 13.7377 26.9331 14.6185 27.1299 15.5505C27.3266 16.4825 27.3314 17.4456 27.1438 18.3796C26.4545 18.9811 25.8279 19.6526 25.2736 20.3836C24.1932 21.8196 23.4214 23.469 23.008 25.2256C22.5932 23.4728 21.8214 21.8272 20.7423 20.3944V20.3836ZM15.2706 30.9993C13.2637 30.0619 11.6449 28.4403 10.6966 26.4172C12.2865 26.524 13.849 26.8898 15.3241 27.5004C17.4757 28.4152 19.3782 29.842 20.8706 31.6601C18.9821 32.0233 17.0293 31.7966 15.2706 31.0101V30.9993ZM29.8797 25.5181C27.9628 26.3166 26.2117 27.4742 24.7179 28.9303C24.6489 26.3304 25.4429 23.7823 26.9728 21.6943C28.2684 19.9962 30.0144 18.7075 32.0064 17.9788C32.553 19.2334 32.7382 20.6191 32.5408 21.9759C32.3971 22.9941 32.0321 23.9671 31.4721 24.8248C31.4461 24.877 31.4247 24.9314 31.4079 24.9873C30.8885 25.1372 30.3782 25.3181 29.8797 25.5289V25.5181Z" fill="white"/>
<path d="M23.0077 15.5849C23.2911 15.5849 23.5629 15.4708 23.7633 15.2677C23.9638 15.0645 24.0764 14.789 24.0764 14.5017C24.0764 14.2144 23.9638 13.9389 23.7633 13.7357C23.5629 13.5326 23.2911 13.4185 23.0077 13.4185C22.7242 13.4185 22.4524 13.5326 22.252 13.7357C22.0516 13.9389 21.939 14.2144 21.939 14.5017C21.939 14.789 22.0516 15.0645 22.252 15.2677C22.4524 15.4708 22.7242 15.5849 23.0077 15.5849Z" fill="white"/>
<path d="M23.0077 18.8344C23.2911 18.8344 23.5629 18.7203 23.7633 18.5172C23.9638 18.314 24.0764 18.0385 24.0764 17.7512C24.0764 17.4639 23.9638 17.1884 23.7633 16.9852C23.5629 16.7821 23.2911 16.668 23.0077 16.668C22.7242 16.668 22.4524 16.7821 22.252 16.9852C22.0516 17.1884 21.939 17.4639 21.939 17.7512C21.939 18.0385 22.0516 18.314 22.252 18.5172C22.4524 18.7203 22.7242 18.8344 23.0077 18.8344Z" fill="white"/>
</svg>
