<svg width="39" height="41" viewBox="0 0 39 41" fill="none" xmlns="http://www.w3.org/2000/svg">
<path d="M20.6598 10.2727C25.1176 10.2727 28.7022 13.8409 28.7022 18.2273C28.7022 21.4091 26.8295 24.125 24.1065 25.3977V30.7273H16.0642V27.3182H14.9152C13.64 27.3182 12.6174 26.3068 12.6174 25.0455V21.6364H10.8941C10.4115 21.6364 10.1358 21.0682 10.4115 20.7159L12.6174 17.8409C12.8357 13.625 16.3284 10.2727 20.6598 10.2727ZM20.6598 8C15.3863 8 11.0204 11.8864 10.3885 16.9773L8.59624 19.3636H8.56177L8.53879 19.3977C7.90689 20.2614 7.82647 21.3977 8.3205 22.3409C8.73411 23.125 9.46941 23.6705 10.3196 23.8409V25.0455C10.3196 27.1477 11.7902 28.9318 13.7663 29.4432V33H26.4044V26.75C29.2766 24.8523 31 21.7045 31 18.2273C31 12.5795 26.3584 8 20.6598 8ZM25.2554 16.8977C25.2554 18.6477 23.6929 20.0455 21.3262 22.1705L20.6598 22.7727L19.9934 22.1705C17.6267 20.0455 16.0642 18.6477 16.0642 16.8977C16.0642 15.5341 17.1671 14.4091 18.5458 14.3977H18.5918C19.3845 14.3977 20.1428 14.75 20.6598 15.3409C21.1768 14.75 21.9351 14.3977 22.7278 14.3977C24.1065 14.3864 25.2554 15.4886 25.2554 16.8523V16.8977Z" fill="white"/>
</svg>
